<svg xmlns="http://www.w3.org/2000/svg" width="1110" height="162" fill="none" viewBox="0 0 1110 162"><path fill="#111" d="M55.355 0c17.185 8.078 32.634 19.838 45.538 34.48 12.9 14.64 23.036 31.906 29.921 50.768s10.411 39.021 10.411 59.342V162l-78.758-28.127L8.776 162 0 141.004l62.467-33.139 51.824 18.961c-1.356-11.54-4.027-22.839-7.955-33.599-5.926-16.236-14.569-30.864-25.341-43.088a120.6 120.6 0 0 0-14.358-13.827l-10.562 20.39H24.936l21.847-40.449.013.006zm323.679 0q16.684 0 29.607 7.014 12.924 6.787 19.974 19.457 7.049 12.444 7.049 28.961h-27.023q0-14.479-8.224-23.303t-21.383-8.824h-24.908q-14.334 0-23.029 10.18-8.693 10.182-8.693 26.7v41.631q0 16.743 8.459 26.924 8.46 9.954 22.322 9.955h25.379q13.63 0 22.088-9.955 8.46-9.956 8.46-25.793h27.023q0 17.648-7.285 30.998-7.05 13.349-20.209 20.815-12.924 7.24-30.077 7.24h-25.379q-17.387 0-30.546-7.24-13.158-7.466-20.444-20.815-7.284-13.576-7.285-31.224V59.279q0-17.648 7.285-30.996 7.52-13.575 20.913-20.816Q336.502.001 354.126 0zm315.253 0c42.989 0 84.525 36.265 84.525 81s-38.421 81-84.525 81h-50.469v-26.325h50.469c30.736 0 55.653-24.479 55.653-54.675s-24.917-54.675-55.653-54.675h-23.47V93.15h-26.999V0zm229.904 26.325h-50.469c-25.746 0-47.404 17.176-53.76 40.5h104.229V93.15h-104.74c5.624 24.348 27.786 42.525 54.271 42.525h50.469V162h-50.469c-46.104 0-84.525-36.265-84.525-81s41.536-81 84.525-81h50.469zM239.448.403q20.361 0 32.909 10.851 12.548 10.85 12.548 28.625v16.39q0 12.005-7.577 21.239-7.34 9.003-20.598 13.39v.46q7.577 4.386 12.076 11.312 4.735 6.694 8.05 17.545l13.258 41.783h-28.648l-12.785-39.936q-3.077-10.39-9.47-15.929-6.392-5.54-14.915-5.542h-42.618v61.407h-27.7V.403zm235.534 68.564h81.92V.403h27.463v161.595h-27.463V92.513h-81.92v69.485h-27.7V.403h27.7zm152.972 93.031h-27.701V.403h27.701zM1006.37 57.424l40.25-57.02h31.01l-55.64 79.18 58.01 82.414h-31.25l-42.38-60.483-42.62 60.483h-31.252l58.005-82.414L934.865.404h31.254zM181.678 77.276h51.615q10.89 0 17.282-5.77 6.63-5.772 6.63-15.006V40.571q-.001-7.386-4.973-12.003t-13.258-4.618h-57.296zM1089.72 1.778H1086V0h9.76v1.778h-3.8V12h-2.24zM1097.78 0h2.1l4.08 6.7 3.94-6.7h2.1v12h-2.17V3.76l-3.18 5.197a2.1 2.1 0 0 1-.32.479.57.57 0 0 1-.33.102h-.4l-3.65-5.777V12h-2.17z"/></svg>