<svg xmlns="http://www.w3.org/2000/svg" width="690" height="108" fill="none" viewBox="0 0 690 108"><path fill="#111" d="M35.365 0c10.98 5.385 20.85 13.225 29.094 22.987 8.242 9.76 14.718 21.27 19.117 33.845s6.65 26.014 6.65 39.561V108L39.91 89.249 5.607 108 0 94.003 39.91 71.91l33.11 12.64c-.867-7.693-2.573-15.225-5.083-22.399-3.787-10.824-9.308-20.576-16.19-28.725a78.6 78.6 0 0 0-9.173-9.218L35.825 37.8H15.931L29.89 10.836l.007.004zm206.796 0q10.659 0 18.915 4.676 8.258 4.525 12.761 12.972 4.504 8.295 4.504 19.307h-17.265q0-9.654-5.254-15.536t-13.661-5.882h-15.914q-9.158 0-14.713 6.787t-5.554 17.799v27.754q0 11.161 5.405 17.95 5.404 6.636 14.261 6.636h16.214q8.708 0 14.112-6.636 5.405-6.638 5.405-17.196h17.265q0 11.767-4.655 20.665-4.503 8.9-12.911 13.877Q252.82 108 241.86 108h-16.214q-11.109 0-19.515-4.827-8.407-4.977-13.062-13.877-4.653-9.05-4.654-20.815V39.519q0-11.765 4.654-20.664 4.804-9.05 13.361-13.877Q214.988.001 226.247 0zm201.411 0c27.465 0 54.003 24.177 54.003 54s-24.547 54-54.003 54h-32.244V90.45h32.244c19.637 0 35.556-16.32 35.556-36.45s-15.919-36.45-35.556-36.45h-14.994V62.1h-17.25V0zm146.883 17.55h-32.244c-16.448 0-30.286 11.45-34.347 27h66.591V62.1h-66.917c3.593 16.232 17.752 28.35 34.673 28.35h32.244V108h-32.244c-29.455 0-54.002-24.177-54.002-54s26.537-54 54.002-54h32.244zM152.981.269q13.008 0 21.025 7.234 8.016 7.233 8.017 19.083v10.927q0 8.003-4.841 14.159-4.69 6.002-13.16 8.926v.308q4.84 2.924 7.715 7.54 3.025 4.464 5.143 11.697L185.35 108h-18.302l-8.169-26.625q-1.966-6.926-6.05-10.619t-9.529-3.694h-27.228V108H98.375V.269zm150.48 45.709h52.337V.268h17.546V108h-17.546V61.676h-52.337v46.323h-17.698V.269h17.698zm97.732 62.021h-17.698V.269h17.698zm241.764-69.716L668.672.268h19.815L652.94 53.056 690 108h-19.968l-27.075-40.322L615.729 108h-19.966l37.059-54.943L597.275.27h19.968zM116.072 51.517h32.976q6.957 0 11.041-3.846 4.236-3.848 4.236-10.004v-10.62q0-4.924-3.177-8.002t-8.47-3.078h-36.606z"/></svg>