<svg xmlns="http://www.w3.org/2000/svg" width="19" height="19" fill="none" viewBox="0 0 19 19"><path fill="#111" d="M15.833 7.917v5.541c0 .874-.71 1.584-1.583 1.584H8.708c-.873 0-1.583-.71-1.583-1.584V7.125a.791.791 0 1 1 1.583 0v6.333h2.375v-2.375a.791.791 0 1 1 1.584 0v2.375h1.583V7.917h-3.167a.791.791 0 1 1 0-1.584h3.167c.873 0 1.583.71 1.583 1.584M19 7.125v7.917A3.96 3.96 0 0 1 15.042 19H2.884A2.884 2.884 0 0 1 0 16.116V2.771A2.77 2.77 0 0 1 2.77 0h.397a2.375 2.375 0 0 1 2.375 2.375v.792h9.5A3.96 3.96 0 0 1 19 7.125m-17.417 6.6a2.8 2.8 0 0 1 1.188-.267h.396a.79.79 0 0 0 .791-.791V2.375a.79.79 0 0 0-.791-.792H2.77a1.19 1.19 0 0 0-1.188 1.188zm15.834-6.6a2.375 2.375 0 0 0-2.375-2.375h-9.5v7.917a2.375 2.375 0 0 1-2.375 2.375H2.77a1.188 1.188 0 0 0 0 2.375h12.27a2.375 2.375 0 0 0 2.376-2.375z"/></svg>