<svg xmlns="http://www.w3.org/2000/svg" width="18" height="19" fill="none" viewBox="0 0 18 19"><path fill="#111" d="M8.182 12.244v.024c0 .589-.648.966-1.186.69l-1.657-.85a.78.78 0 0 1-.43-.69v-.024c0-.59.648-.966 1.186-.69l1.657.85c.265.135.43.401.43.69m3.735-1.49-1.658.818a.78.78 0 0 0-.44.696v.038c0 .583.637.96 1.174.696l1.658-.819a.78.78 0 0 0 .44-.696v-.038c0-.583-.637-.96-1.174-.696M18 6.474v6.049c0 1.469-.834 2.81-2.175 3.497l-4.91 2.517a4.2 4.2 0 0 1-3.831 0L2.176 16.02C.833 15.332 0 13.993 0 12.523V6.476c0-1.469.834-2.81 2.175-3.497L7.085.46a4.22 4.22 0 0 1 3.831 0l4.909 2.518C17.166 3.666 18 5.006 18 6.475M1.912 5.392 7.85 8.43c.721.369 1.58.37 2.3 0l5.939-3.04a2.4 2.4 0 0 0-1.03-1.015L10.15 1.859a2.52 2.52 0 0 0-2.298 0l-4.91 2.518c-.452.232-.805.59-1.03 1.015m14.452 7.13v-2.286l-.434.236c-.538.293-1.203-.083-1.203-.68 0-.283.158-.543.413-.682l1.224-.664V7.04l-5.449 2.79a4.2 4.2 0 0 1-3.831 0L1.636 7.04v1.364l1.211.63c.262.136.426.4.426.688v.02c0 .59-.652.967-1.19.688l-.447-.232v2.325c0 .881.5 1.685 1.306 2.098L7.85 17.14c.721.37 1.58.37 2.3 0l4.91-2.518a2.36 2.36 0 0 0 1.304-2.098"/></svg>