<svg xmlns="http://www.w3.org/2000/svg" width="60" height="60" fill="none" viewBox="0 0 60 60"><path fill="#111" d="M34.687 56.88c3.297-1.497 6.669-1.497 9.966-.026 3.223 1.446 6.347 1.37 9.595 0 1.389-.583 2.926-.786 4.438-1.014.397-.05 1.166.456 1.24.812.174.76-.52.811-1.14.938-1.439.279-2.877.685-4.29 1.04-1.66.431-3.322.913-5.057 1.37-1.736-.482-3.447-.76-5.034-1.42-3.148-1.32-6.223-1.396-9.347.025-3.396 1.522-6.818 1.497-10.19-.025-3.074-1.396-6.148-1.37-9.223.025-3.347 1.522-6.694 1.446-10.09.076-1.389-.558-2.951-.71-4.39-1.142-.42-.127-.768-.558-1.14-.837.372-.304.794-.887 1.116-.837 1.587.229 3.223.431 4.661 1.04 3.199 1.344 6.298 1.42 9.471-.025 3.298-1.497 6.67-1.497 9.967-.026 3.174 1.42 6.273 1.446 9.447.026M32.356 0c1.14-.025 1.66.38 1.611 1.623-.074 1.928-.025 3.857-.025 5.937h7.14c2.306 0 3.298 1.015 3.298 3.4 0 2.485.05 4.997-.025 7.483-.024.888.273 1.269 1.066 1.548 2.182.812 4.29 1.75 6.472 2.537 1.016.38 1.388.99 1.388 2.055-.05 6.9-1.959 13.318-5.033 19.407-.942 1.852-2.083 3.628-3.174 5.53 2.95 1.269 5.827 1.142 8.778.051 1.562-.583 3.247-.888 4.884-1.167.371-.05.843.508 1.264.813-.421.304-.794.76-1.24.887-1.438.431-3 .61-4.388 1.167-3.273 1.269-6.546 1.42-9.769-.025-3.297-1.472-6.496-1.472-9.818.025-3.174 1.42-6.446 1.42-9.62-.025-3.297-1.497-6.52-1.446-9.818.025-3.174 1.42-6.397 1.269-9.644.026-1.438-.559-3.025-.736-4.513-1.193-.446-.127-.793-.61-1.19-.939.397-.254.843-.812 1.19-.735 1.661.279 3.348.532 4.885 1.141 2.975 1.167 5.85 1.218 8.603.102-1.76-3.654-3.62-7.078-5.107-10.68-1.885-4.542-2.802-9.337-2.852-14.31 0-1.115.322-1.775 1.413-2.155 2.182-.787 4.29-1.725 6.471-2.537.819-.304 1.042-.71 1.017-1.573-.05-2.588-.025-5.15-.025-7.738.024-2.029 1.066-3.12 3.074-3.12 2.38-.025 4.785 0 7.364 0V1.726c0-1.496.174-1.7 1.611-1.7 1.562 0 3.15.026 4.712-.025m-1.438 50.637c1.289-.431 2.504-.685 3.62-1.192 2.478-1.091 5.007-1.395 7.635-.863.868.178 1.34-.026 1.836-.761 2.578-3.83 4.487-7.966 5.826-12.38.347-1.142.62-2.334.942-3.577-6.67-2.639-13.19-5.201-19.86-7.865zm-1.836-26.613A7652 7652 0 0 1 9.248 31.89c1.364 6.013 3.62 11.492 7.14 16.389.198.278.794.406 1.166.33 2.9-.533 5.653-.23 8.33 1.04.967.456 2.058.608 3.198.938zm1.761-7.889c0 1.852-.025 3.577.025 5.302 0 .304.347.761.644.888 6.471 2.588 12.917 5.15 19.636 7.814.15-1.675.224-3.197.397-4.693.1-.863-.223-1.244-1.016-1.574a4085 4085 0 0 1-18.645-7.433c-.297-.127-.595-.177-1.04-.304m-1.735-.077C22.265 18.8 15.62 21.438 9 24.127c-.223.101-.52.483-.496.71.05 1.726.199 3.425.298 5.125.272 0 .371.025.421 0 6.422-2.537 12.843-5.073 19.24-7.636.248-.101.62-.407.62-.635.049-1.826.025-3.653.025-5.632M18.695 9.337c-.819 0-1.39.228-1.39 1.192.026 2.69.025 5.379.025 8.27.595-.202.967-.33 1.34-.482 3.42-1.37 6.818-2.764 10.264-4.084.62-.228 1.463-.253 2.083-.025 3.446 1.294 6.842 2.714 10.264 4.084.397.152.818.305 1.363.508v-7.636c0-1.675-.148-1.827-1.76-1.827zm9.173-1.852h4.289V1.853h-4.29z"/></svg>