<svg xmlns="http://www.w3.org/2000/svg" width="20" height="19" fill="none" viewBox="0 0 20 19"><path fill="#111" d="M13.333 11.083c0 .437-.373.792-.833.792h-.833c-.46 0-.834-.355-.834-.792s.374-.791.834-.791h.833c.46 0 .833.354.833.791m2.5-.791H15c-.46 0-.833.354-.833.791s.373.792.833.792h.833c.46 0 .834-.355.834-.792s-.374-.791-.834-.791M12.5 13.458h-.833c-.46 0-.834.355-.834.792s.374.792.834.792h.833c.46 0 .833-.355.833-.792s-.373-.792-.833-.792m3.333 0H15c-.46 0-.833.355-.833.792s.373.792.833.792h.833c.46 0 .834-.355.834-.792s-.374-.792-.834-.792m-3.333-9.5h-.833c-.46 0-.834.355-.834.792s.374.792.834.792h.833c.46 0 .833-.355.833-.792s-.373-.792-.833-.792m3.333 0H15c-.46 0-.833.355-.833.792s.373.792.833.792h.833c.46 0 .834-.355.834-.792s-.374-.792-.834-.792M12.5 7.125h-.833c-.46 0-.834.355-.834.792s.374.791.834.791h.833c.46 0 .833-.354.833-.791s-.373-.792-.833-.792m3.333 0H15c-.46 0-.833.355-.833.792s.373.791.833.791h.833c.46 0 .834-.354.834-.791s-.374-.792-.834-.792M20 3.958v11.084C20 17.224 18.13 19 15.833 19H4.167C1.869 19 0 17.224 0 15.042V7.329C0 6.26.465 5.22 1.276 4.48l1.573-1.44a2.586 2.586 0 0 1 3.468 0L7.5 4.121v-.163C7.5 1.776 9.37 0 11.667 0h4.166C18.131 0 20 1.776 20 3.958M7.5 7.33c0-.642-.28-1.265-.766-1.71L5.161 4.18a.85.85 0 0 0-.578-.222.85.85 0 0 0-.577.222L2.432 5.62a2.33 2.33 0 0 0-.765 1.71v7.713c0 1.31 1.121 2.375 2.5 2.375H7.5zm10.833-3.37c0-1.31-1.121-2.376-2.5-2.376h-4.166c-1.379 0-2.5 1.066-2.5 2.375v13.459h6.666c1.379 0 2.5-1.066 2.5-2.375zM5 10.291h-.833c-.46 0-.834.354-.834.791s.374.792.834.792H5c.46 0 .833-.355.833-.792s-.373-.791-.833-.791m0-3.167h-.833c-.46 0-.834.355-.834.792s.374.791.834.791H5c.46 0 .833-.354.833-.791S5.46 7.125 5 7.125m0 6.333h-.833c-.46 0-.834.355-.834.792s.374.792.834.792H5c.46 0 .833-.355.833-.792s-.373-.792-.833-.792"/></svg>