<svg xmlns="http://www.w3.org/2000/svg" width="18" height="16" fill="none" viewBox="0 0 18 16"><path fill="#fff" d="M15.134 14.486H3.012V6.603h-.787v8.276a.394.394 0 0 0 .393.394h12.91a.394.394 0 0 0 .393-.394V6.603h-.787zM9.19.776a.4.4 0 0 0-.382 0l-8.81 4.898.383.688L9 1.572l8.617 4.79.383-.688z"/><path fill="#fff" d="m12.862 11.36-1.133-1.132-.557.556.461.461H7.518l.24-.24-.55-.55-.24.24V6.58l.461.461.557-.557-1.133-1.133a.394.394 0 0 0-.557 0L5.163 6.484l.556.557.461-.46v5.452h5.453l-.46.461.556.557 1.133-1.133a.395.395 0 0 0 0-.557"/><path fill="#fff" d="m8.494 9.167.55-.55.55.55-.55.55zm.92-.918.549-.55.55.55-.55.549zm-1.839 1.837.55-.55.55.55-.55.55zm2.76-2.757.549.55.265-.265v.659h.788V6.67a.394.394 0 0 0-.394-.393H9.941v.787h.659z"/></svg>