<svg xmlns="http://www.w3.org/2000/svg" width="80" height="80" fill="none" viewBox="0 0 80 80"><path fill="#fff" fill-rule="evenodd" d="M1.25 1.27a39.8 39.8 0 0 1 13.588 2.84 38.8 38.8 0 0 1 12.57 8.137 37.4 37.4 0 0 1 8.389 12.166A36.5 36.5 0 0 1 38.719 37.5H1.249zm0-1.25A39 39 0 0 0 .596.004L0 0v80a40 40 0 0 0 28.277-11.716c3.713-3.714 6.659-9.374 8.669-14.226A40 40 0 0 0 39.99 38.75V80q.625 0 1.25-.02a40.6 40.6 0 0 0 14.06-2.976 40 40 0 0 0 12.98-8.536c3.715-3.656 6.663-9.247 8.673-14.024A38.8 38.8 0 0 0 80 39.375c0-5.17-1.035-10.29-3.046-15.068a39.3 39.3 0 0 0-8.673-12.774 40 40 0 0 0-12.98-8.536A40.6 40.6 0 0 0 39.99 0v38.75l-.005-.572a37.7 37.7 0 0 0-3.04-14.257 38.7 38.7 0 0 0-8.668-12.57 40.1 40.1 0 0 0-12.974-8.402A41.1 41.1 0 0 0 1.25.02m39.99 78.71a39.3 39.3 0 0 0 13.59-2.885 38.8 38.8 0 0 0 12.575-8.27c3.598-3.54 6.451-8.992 8.398-13.616a37.6 37.6 0 0 0 2.947-14.584 37.6 37.6 0 0 0-2.947-14.584 38.1 38.1 0 0 0-8.398-12.367 38.8 38.8 0 0 0-12.576-8.269A39.3 39.3 0 0 0 41.24 1.27z" clip-rule="evenodd"/></svg>