<svg xmlns="http://www.w3.org/2000/svg" width="18" height="18" fill="none" viewBox="0 0 18 18"><path fill="#fff" d="M16.852 8.841V3.184A2.5 2.5 0 0 0 14.356.688H3.572a2.5 2.5 0 0 0-2.495 2.496v5.73A3.87 3.87 0 0 0 0 11.594v4.29c0 .787.64 1.428 1.428 1.428a1.43 1.43 0 0 0 1.428-1.428v-.444h12.288v.444c0 .787.64 1.428 1.428 1.428A1.43 1.43 0 0 0 18 15.884v-4.29c0-1.075-.44-2.05-1.148-2.753m-13.28-7.45h10.784c.988 0 1.792.805 1.792 1.793v5.104a4 4 0 0 0-.684-.333v-1.17c0-1.036-.844-1.88-1.88-1.88h-3.056c-.63 0-1.187.312-1.528.788a1.88 1.88 0 0 0-1.528-.787H4.416c-1.036 0-1.88.843-1.88 1.88v1.169a4 4 0 0 0-.756.378v-5.15c0-.987.804-1.792 1.792-1.792m.307 6.324a4 4 0 0 0-.64.053v-.983c0-.648.528-1.176 1.177-1.176h3.056c.649 0 1.176.528 1.176 1.176v.93zm5.473-.93c0-.648.527-1.176 1.176-1.176h3.056c.649 0 1.177.528 1.177 1.176v.983a4 4 0 0 0-.64-.053h-4.77zM3.879 8.418H14.12a3.18 3.18 0 0 1 3.176 3.176v1.043H13.77a.352.352 0 1 0 0 .703h3.526v1.397H.703V13.34h9.552a.351.351 0 1 0 0-.703H.703v-1.043A3.18 3.18 0 0 1 3.88 8.418m-1.726 7.466a.726.726 0 0 1-1.45 0v-.444h1.45zm14.419.725a.726.726 0 0 1-.725-.725v-.444h1.45v.444c0 .4-.325.725-.725.725"/><path fill="#fff" d="M12.013 13.34a.352.352 0 1 0 0-.704.352.352 0 0 0 0 .704"/></svg>