<svg xmlns="http://www.w3.org/2000/svg" width="18" height="18" fill="none" viewBox="0 0 18 18"><path fill="#fff" d="M1.828 7.734h.034a2.954 2.954 0 0 1 2.92-2.53h.421v-.845A3.38 3.38 0 0 1 8.578.984h5.063a3.38 3.38 0 0 1 3.375 3.375v12.235c0 .232-.19.422-.422.422a.423.423 0 0 1-.422-.422V4.359a2.533 2.533 0 0 0-2.531-2.53H8.578a2.533 2.533 0 0 0-2.531 2.53v.844h.844V4.36c0-.932.755-1.687 1.687-1.687h5.063c.932 0 1.687.755 1.687 1.687v12.235c0 .232-.19.422-.422.422a.423.423 0 0 1-.422-.422V4.359a.846.846 0 0 0-.843-.843H8.578a.846.846 0 0 0-.844.843v.844h.422a2.954 2.954 0 0 1 2.92 2.531h.033c.464 0 .844.38.844.844v.844c0 .464-.38.844-.844.844H1.83a.846.846 0 0 1-.845-.844v-.844c0-.464.38-.844.844-.844m6.328-1.687H4.781a2.11 2.11 0 0 0-2.067 1.687h7.51a2.11 2.11 0 0 0-2.068-1.687m2.953 3.375v-.844H1.83v.844z"/><path fill="#fff" d="M9 11.11c.232 0 .422.19.422.421v.422c0 .232-.19.422-.422.422a.423.423 0 0 1-.422-.422v-.422c0-.232.19-.422.422-.422m-2.531 0c.232 0 .422.19.422.421v.422c0 .232-.19.422-.422.422a.423.423 0 0 1-.422-.422v-.422c0-.232.19-.422.422-.422m-2.532 0c.233 0 .422.19.422.421v.422c0 .232-.19.422-.421.422a.423.423 0 0 1-.422-.422v-.422c0-.232.19-.422.422-.422m1.266 2.109c.232 0 .422.19.422.422v.422c0 .231-.19.421-.422.421a.423.423 0 0 1-.422-.421v-.422c0-.232.19-.422.422-.422m-2.531 0c.232 0 .422.19.422.422v.422c0 .231-.19.421-.422.421a.423.423 0 0 1-.422-.421v-.422c0-.232.19-.422.422-.422m7.594 0c.232 0 .422.19.422.422v.422c0 .231-.19.421-.422.421a.423.423 0 0 1-.422-.421v-.422c0-.232.19-.422.422-.422m-2.532 0c.232 0 .422.19.422.422v.422c0 .231-.19.421-.422.421a.423.423 0 0 1-.421-.421v-.422c0-.232.19-.422.421-.422m-1.265 2.11c.232 0 .422.189.422.421v.422c0 .232-.19.422-.422.422a.423.423 0 0 1-.422-.422v-.422c0-.232.19-.422.422-.422m-2.532 0c.233 0 .422.189.422.421v.422c0 .232-.19.422-.421.422a.423.423 0 0 1-.422-.422v-.422c0-.232.19-.422.422-.422m7.594 0c.232 0 .422.189.422.421v.422c0 .232-.19.422-.422.422a.423.423 0 0 1-.422-.422v-.422c0-.232.19-.422.422-.422m-2.531 0c.232 0 .422.189.422.421v.422c0 .232-.19.422-.422.422a.423.423 0 0 1-.422-.422v-.422c0-.232.19-.422.422-.422m-7.594 0c.232 0 .422.189.422.421v.422c0 .232-.19.422-.422.422a.423.423 0 0 1-.422-.422v-.422c0-.232.19-.422.422-.422"/></svg>