<svg xmlns="http://www.w3.org/2000/svg" width="80" height="80" fill="none" viewBox="0 0 80 80"><path fill="#fff" fill-rule="evenodd" d="M80 48.924 40.547 79.575l-.003.01-.006-.002L40 80 .769 49.522H.571v-.154L0 48.924 15.145 0h49.71zm-31.44.598-8.824 28.784-37.05-28.784zM16.434 4.464 15.7 2.088l-.005.015zm46.483-3.269H16.625l8.743 28.302zm-21.94 18.01 23.207-17.49 14.126 45.63zm.17 58.416 37.118-28.837-22.97-17.314zm-9.962-29.294-5.448-17.635L40 19.942l14.32 10.793-5.393 17.592z" clip-rule="evenodd"/></svg>