<svg xmlns="http://www.w3.org/2000/svg" width="60" height="60" fill="none" viewBox="0 0 60 60"><path fill="#111" d="M43.553 43.285c0 1.525.05 2.896-.025 4.217-.025.432-.472.838-.696 1.245-.248-.407-.72-.813-.72-1.245a134 134 0 0 1 0-7.748c0-.406.497-.787.77-1.194.224.382.596.737.67 1.144.125.61.026 1.244.026 1.956h14.807V31.092H43.553c0 .712.074 1.448-.025 2.134-.05.356-.472.635-.72.965-.249-.33-.671-.635-.721-.99-.422-3.607-.323-3.709 3.155-3.709H58.36V1.6H40.547v19.992h5.068c.571 0 1.341-.102 1.217.762-.05.305-.82.737-1.267.737-3.9.05-7.776.05-11.677 0-.447 0-1.242-.432-1.292-.737-.1-.838.671-.762 1.243-.762h5.043V1.626h-17.74v19.966c1.69 0 3.38-.05 5.07.025.422.026.844.432 1.266.66-.422.28-.844.814-1.267.814q-5.963.075-11.925 0c-.398 0-.795-.483-1.168-.763.397-.253.795-.685 1.193-.71 1.689-.077 3.378-.026 5.142-.026V1.626H1.665v19.966c1.54 0 3.08-.025 4.596.025.621.026 1.664-.38 1.664.711 0 1.194-1.068.763-1.739.788-1.49.05-2.956.025-4.546.025v6.351h8.994c3.453 0 3.453 0 3.453 3.556 0 .508.075 1.042-.05 1.524-.074.305-.447.508-.67.762-.249-.279-.721-.508-.746-.812-.1-1.093-.025-2.185-.025-3.404H1.64V43.87h10.956c0-1.067-.074-2.109.025-3.15.05-.381.497-.712.745-1.067.249.33.671.66.696 1.016.05 2.718.05 5.41 0 8.129 0 .355-.497.685-.77 1.016-.224-.33-.621-.66-.646-1.042-.1-1.041-.025-2.083-.025-3.2H1.665v12.777H12.62c0-1.042-.074-2.108.025-3.15.05-.381.497-.711.745-1.067.224.33.646.66.671 1.016.1 1.042.025 2.083.025 3.2h27.925V54.31c0-.584-.024-1.372.795-1.22.299.051.646.788.671 1.22.1 1.346-.025 2.718.05 4.064.075 1.194-.348 1.626-1.565 1.626-7.13-.05-14.236-.025-21.367-.025-6.335 0-12.67-.026-19.006.025C.398 60 0 59.644 0 58.425.025 39.45.025 20.5 0 1.525.05.38.447 0 1.64 0c18.93.025 37.838.025 56.77 0C59.603 0 60 .381 60 1.6c-.025 13.387-.025 26.749 0 40.136 0 1.245-.422 1.6-1.59 1.575-4.92-.077-9.789-.026-14.857-.026"/></svg>