<svg xmlns="http://www.w3.org/2000/svg" width="60" height="60" fill="none" viewBox="0 0 60 60"><path fill="#111" d="M57.388 57.955c.353.517.8.893.73 1.152-.095.352-.565.587-.871.893-.26-.33-.706-.635-.753-.987-.024-.259.47-.588.894-1.058m-54.682 0c.377.493.848.846.8 1.105-.07.352-.54.611-.823.917-.283-.306-.73-.612-.8-.964-.047-.235.447-.564.823-1.058m54.54-3.41c.282-.023.824.424.847.706.047.353-.33.729-.706 1.41-.447-.634-.894-.963-.894-1.316 0-.282.47-.776.753-.8m-54.468-.352c.353.517.8.894.73 1.152-.094.353-.565.588-.87.893-.26-.329-.707-.634-.754-.987-.024-.282.47-.587.894-1.058M23.821.262c.283.494.541.917.847 1.41-2.212 1.011-1.035 2.869-1.341 4.49 11.04 1.928 21.985 3.856 33.071 5.808V7.48h1.79v4.772c.682.14 1.2.235 1.812.352v1.529h-1.718v9.215c.588.047 1.106.07 1.718.118v1.67c-.565.046-1.083.07-1.718.117v1.857c.564.023 1.106.07 1.718.094v1.669c-.565.047-1.083.07-1.718.118v17.844c.564.047 1.106.07 1.718.117v1.67c-.565.046-1.083.07-1.765.117v3.644h-1.766v-3.62c-17.677.046-35.19.047-52.891.047v3.62H1.836v-3.644c-.683-.047-1.2-.07-1.836-.118V47c.541-.047 1.06-.07 1.718-.117V29.038c-.541-.047-1.083-.07-1.695-.118v-1.669c.542-.047 1.107-.094 1.742-.141v-1.834c-.588-.023-1.13-.07-1.765-.117v-1.67c.541-.047 1.106-.094 1.718-.14v-8.347c-.541.07-1.082.118-1.718.165v-1.552c1.789-.752 1.789-.752 1.789-2.774 0-1.01.024-2.045.024-3.056 0-.07.047-.141.117-.282h1.6v4.232C10.429 7.832 17.067 4.07 23.822.262M3.648 38.77c-.14 1.293-.235 2.539 1.06 3.597a21 21 0 0 1 3.39 3.385c1.059 1.317 2.33 1.293 3.6 1.152-2.683-2.704-5.366-5.43-8.05-8.134m.024-5.431c-.212 1.504-.047 2.68 1.153 3.808q4.59 4.302 8.898 8.887c1.083 1.152 2.213.917 3.46.823-4.52-4.537-8.968-8.98-13.511-13.518m.118-4.514c-.142.165-.306.33-.447.494.353.658.54 1.457 1.059 1.975 4.92 4.984 9.91 9.897 14.83 14.881.658.682 1.294.94 2.565.564-.306-.634-.447-1.293-.871-1.716A1908 1908 0 0 0 5.484 29.602c-.423-.4-1.106-.517-1.694-.776m39.427 18.056h5.555V36.56h-5.555zm7.532 0h5.555V36.56H50.75zm-47.077-.047h2.895c-.965-.964-1.883-1.881-2.895-2.916zm19.749 0h10.286V36.467h-4.543v-1.81h27.164c.023-1.928.023-3.715.023-5.596h-32.93zm12.24 0h5.579V36.537h-5.58zM11.157 29.906c-1.082-1.128-2.212-.94-3.319-.822 4.543 4.537 9.11 9.075 13.653 13.635.353-1.48-.07-2.656-1.271-3.785-3.107-2.915-6.12-5.948-9.063-9.028m5.532.165c-1.06-1.316-2.283-1.152-3.555-1.01 2.778 2.797 5.532 5.595 8.357 8.416.306-1.505.07-2.75-1.224-3.832a24.5 24.5 0 0 1-3.578-3.574m10.356 6.348h-1.671v-1.622h1.671zm-8.85-7.359c1.177 1.082 2.236 2.046 3.296 3.033V29.06zm5.203-1.928h32.93v-1.81h-32.93zm-19.75-.047h17.866V25.3H3.648zm.048-3.714H9.25v-4.679H3.696zM21.514 3.718c-.282.094-.423.117-.565.188-3.06 1.74-6.143 3.456-9.18 5.242-.353.212-.612.87-.635 1.317-.047 3.762-.024 7.523-.024 11.261v1.622h10.38c.024-6.535.024-13.024.024-19.63m1.907 19.63h32.907v-9.592C45.335 11.828 34.413 9.924 23.42 7.973zm13.251-3.597c.283-.023.612.47 1.13.917-.588.353-.965.73-1.318.706-.282-.024-.777-.635-.73-.823.118-.353.565-.73.918-.8m-.047-3.761c.26-.047.636.423 1.2.823-.564.376-.917.799-1.27.799-.283 0-.824-.588-.777-.776.094-.352.518-.775.847-.846m-27.35-5.455c-1.884 1.058-3.65 2.046-5.368 3.057-.164.094-.282.376-.282.587a93 93 0 0 0-.024 2.586h5.673zm27.352 1.717c.259-.07.635.4 1.177.823-.565.376-.918.799-1.271.8-.283 0-.824-.589-.777-.777.094-.352.518-.776.87-.846m20.76-8.487c.282-.024.611.446 1.129.917-.588.352-.965.752-1.318.705-.283-.024-.777-.635-.73-.823.118-.353.565-.752.918-.8M2.73 3.74c.235-.047.612.424 1.2.823-.565.4-.894.823-1.247.823-.283 0-.565-.494-.848-.776.283-.305.542-.775.895-.87M2.802.003c.282-.023.588.47 1.106.94-.588.33-.989.706-1.318.682-.282-.023-.518-.564-.777-.87.33-.258.636-.705.989-.752m54.584 0c.26-.047.612.447 1.13.893-.588.353-.965.753-1.294.73-.283-.024-.8-.612-.73-.823.117-.353.541-.753.894-.8"/></svg>