<svg xmlns="http://www.w3.org/2000/svg" width="19" height="19" fill="none" viewBox="0 0 19 19"><path fill="#111" d="M18.857 4.996a3.97 3.97 0 0 0-3.923-3.413h-2.267C12.667.71 11.957 0 11.083 0H7.917c-.874 0-1.584.71-1.584 1.583H4.066A3.974 3.974 0 0 0 .143 4.996a16 16 0 0 0 0 4.258 3.974 3.974 0 0 0 3.923 3.413h10.869a3.974 3.974 0 0 0 3.923-3.413c.19-1.367.19-2.891-.001-4.258m-1.568 4.04a2.384 2.384 0 0 1-2.355 2.047H4.066a2.38 2.38 0 0 1-2.354-2.046c-.17-1.224-.17-2.6 0-3.825a2.384 2.384 0 0 1 2.354-2.045h10.869c1.181 0 2.193.88 2.355 2.045a14.5 14.5 0 0 1 0 3.825M10.9 6.122a1.98 1.98 0 0 1-2.798 2.8 1.98 1.98 0 0 1 0-2.8l.913-.894a.696.696 0 0 1 .974 0zm3.747 7.337a2.77 2.77 0 0 0-2.493 1.584H6.847a2.77 2.77 0 0 0-2.493-1.584 2.774 2.774 0 0 0-2.77 2.771A2.774 2.774 0 0 0 4.353 19a2.766 2.766 0 0 0 2.73-2.375h4.83A2.766 2.766 0 0 0 14.646 19a2.774 2.774 0 0 0 2.77-2.77 2.773 2.773 0 0 0-2.77-2.772M4.354 17.417a1.19 1.19 0 0 1-1.187-1.188 1.188 1.188 0 0 1 2.375 0 1.19 1.19 0 0 1-1.188 1.188m10.292 0a1.19 1.19 0 0 1-1.188-1.188 1.189 1.189 0 0 1 2.375 0 1.19 1.19 0 0 1-1.187 1.188"/></svg>