<svg xmlns="http://www.w3.org/2000/svg" width="60" height="60" fill="none" viewBox="0 0 60 60"><path fill="#111" d="M44.102 20.665c.234.257.655.515.655.773.047 3.584.047 7.193 0 10.778 0 .304-.327.702-.631.89-4.45 3.186-8.9 6.326-13.35 9.512-.561.398-1.03.398-1.568-.023a53 53 0 0 0-3.537-2.484c-.304-.187-.89-.234-1.17-.046-1.757 1.1-3.442 2.295-5.339 3.56 2.904 2.062 5.667 4.03 8.43 5.999 2.435 1.733 2.436 1.733 4.848 0 8.149-5.787 16.298-11.551 24.424-17.338.305-.234.633-.47 1.055-.774-.633-.445-1.195-.82-1.78-1.218a1618 1618 0 0 1-8.057-5.435c-.234-.164-.538-.259-.655-.47-.187-.328-.211-.726-.328-1.077.375-.023.866-.234 1.124-.07 3.77 2.483 7.54 5.014 11.264 7.567.257.188.468.633.469.984.046 2.156.07 4.288 0 6.444-.024.421-.351.96-.702 1.218-9.461 6.748-18.946 13.472-28.43 20.22-.61.445-1.054.422-1.663 0-9.46-6.748-18.969-13.448-28.43-20.22-.374-.257-.678-.867-.678-1.335a88 88 0 0 1 0-6.092c.023-.492.374-1.125.749-1.406 3.583-2.483 7.236-4.92 10.866-7.333.469-.328 1.053-.843 1.451-.047.117.258-.257.984-.608 1.219-3.115 2.155-6.253 4.24-9.391 6.372-.304.21-.609.445-1.007.726 3.653 2.577 7.19 5.107 10.796 7.661 1.944-1.312 3.84-2.576 5.901-3.959-.983-.703-1.826-1.335-2.716-1.945-.609-.398-.89-.867-.89-1.64.047-3.163 0-6.325.047-9.488 0-.422.374-1.172.655-1.219.867-.117.774.657.774 1.219 0 2.694.07 5.389-.024 8.083-.046 1.195.258 2.015 1.312 2.554.421.21.819.538 1.45.96v-2.788c0-1.171.493-2.038 1.547-2.53 1.124-.516 2.131-.258 3.044.515 1.148.984 1.803 2.25 1.826 3.772.024 1.57.047 3.117 0 4.686-.023.703.188 1.148.797 1.523.843.538 1.662 1.148 2.692 1.85v-9.395c0-.562-.022-1.264.727-1.147.281.047.679.773.679 1.194.07 2.648.023 5.32.023 7.967v1.288c.398-.234.657-.351.89-.538 3.654-2.601 7.33-5.178 10.96-7.802.375-.282.702-.915.726-1.383.07-2.929.023-5.857.023-8.786 0-.234-.07-.516.024-.703.187-.328.492-.562.726-.843M1.482 32.989c0 1.452.046 2.718-.024 4.006-.047.844.234 1.335.913 1.827 8.618 6.068 17.188 12.184 25.783 18.276.304.21.633.398 1.125.703 0-1.547-.047-2.883.023-4.242.023-.726-.258-1.124-.82-1.522-8.665-6.115-17.306-12.277-25.97-18.416-.281-.187-.562-.351-1.03-.632m57.022.117c-.234.047-.282.047-.328.07-9.016 6.373-18.032 12.77-27.024 19.142-.211.164-.422.492-.422.75-.024 1.523 0 3.022 0 4.662.28-.093.375-.117.422-.164 8.945-6.35 17.891-12.675 26.813-19.025.211-.14.515-.375.515-.585.047-1.594.024-3.21.024-4.85m-35.432-2.952c-.21-.328-1.03-.515-1.404-.352-.375.141-.703.797-.75 1.265-.117 1.078-.094 2.179-.024 3.28.07.937-.28 1.5-1.077 1.992-1.85 1.171-3.676 2.437-5.62 3.749 1.288.937 2.436 1.757 3.654 2.624 2.037-1.359 4.027-2.671 5.97-4.054.282-.21.515-.679.515-1.03.047-1.57.164-3.14-.023-4.686-.14-.984-.703-1.945-1.241-2.788m16.068-4.685c.797-.469 1.288-.211 1.335.702a45 45 0 0 1-.023 3.96c-.024.352-.328.796-.632 1.007a78 78 0 0 1-3.607 2.578c-.867.585-1.381.328-1.451-.726-.024-.656 0-1.313 0-2.297-.562-1.757.468-2.952 2.224-3.82.75-.374 1.429-.96 2.154-1.404m-.28 2.038c-2.693 1.43-3.021 2.015-2.39 4.123 2.951-1.897 2.6-1.241 2.39-4.123M30.005 0c.304.164.562.305.82.492 6.111 4.522 12.224 9.068 18.336 13.59.866.655.866 1.1-.047 1.686-6.111 4.053-12.2 8.13-18.359 12.136-.375.235-1.171.211-1.546-.046-6.112-3.983-12.178-8.037-18.243-12.067-.936-.632-.936-1.054 0-1.756A5242 5242 0 0 1 29.21.515c.211-.187.492-.328.796-.515m.727 21.837c0 .35.046.726-.07 1.03-.094.234-.446.515-.657.515-.234 0-.561-.28-.655-.515-.117-.304-.07-.68-.07-1.03V2.273c-5.808 4.31-11.382 8.434-16.979 12.605.234.187.328.304.469.398 5.526 3.655 11.053 7.31 16.556 11.012.656.445 1.054.187 1.545-.165 5.129-3.42 10.281-6.817 15.41-10.215l1.475-1.007C42.09 10.684 36.54 6.561 30.733 2.25z"/></svg>